<svg xmlns="http://www.w3.org/2000/svg" class="icon icon-biscuit-1" viewBox="0 0 17.79 16"><path  d="M17.79 4.44c0-.48-.39-.87-.87-.89.48-.01.87-.4.87-.89s-.4-.89-.89-.89-.89.4-.89.89c0-.49-.4-.89-.89-.89s-.89.4-.89.89c0-.49-.4-.89-.89-.89s-.89.4-.89.89c0-.49-.4-.89-.89-.89s-.89.4-.89.89c0-.49-.4-.89-.89-.89s-.89.4-.89.89c0-.49-.4-.89-.89-.89s-.89.4-.89.89c0-.49-.4-.89-.89-.89s-.89.4-.89.89c0-.49-.4-.89-.89-.89s-.89.4-.89.89c0-.49-.4-.89-.89-.89s-.89.4-.89.89c0-.49-.4-.89-.89-.89s-.89.4-.89.89.39.87.87.88c-.48.01-.87.4-.87.89s.39.87.87.88c-.48.02-.87.41-.87.89s.39.87.87.88c-.48.02-.87.41-.87.89s.39.87.87.88c-.48.02-.87.41-.87.89s.39.87.87.88c-.48.02-.87.41-.87.89s.39.87.87.88c-.48.02-.87.41-.87.89s.4.89.89.89.89-.4.89-.89c0 .49.4.89.89.89s.89-.4.89-.89c0 .49.4.89.89.89s.89-.4.89-.89c0 .49.4.89.89.89s.89-.4.89-.89c0 .49.4.89.89.89s.89-.4.89-.89c0 .49.4.89.89.89s.89-.4.89-.89c0 .49.4.89.89.89s.89-.4.89-.89c0 .49.4.89.89.89s.89-.4.89-.89c0 .49.4.89.89.89s.89-.4.89-.89c0 .49.4.89.89.89s.89-.4.89-.89-.39-.88-.88-.89c.49 0 .88-.4.88-.89s-.39-.88-.88-.89c.49 0 .88-.4.88-.89s-.39-.88-.88-.89c.49 0 .88-.4.88-.89s-.39-.88-.88-.89c.49 0 .88-.4.88-.89s-.39-.88-.88-.89c.49 0 .88-.4.88-.89Z"/></svg>