<svg xmlns="http://www.w3.org/2000/svg" fill="currentColor" class="icon icon-dracula" viewBox="0 0 28.88 16"><path  d="m28.22-1.71-.66-.24c-.7 1.91-2.88 3.52-4.78 3.52-.78 0-1.41-.28-1.77-.79-.39-.56-.43-1.36-.11-2.25l-.66-.24-.66-.24L18.62.7h-3.59l.79-2.17-1.32-.48c-.7 1.91-2.88 3.52-4.78 3.52-.78 0-1.41-.28-1.77-.79-.39-.56-.43-1.36-.11-2.25l-1.32-.48L.33 15.06 0 16h1.48l.17-.45c.73-1.89 2.86-3.43 4.74-3.43.63 0 1.17.18 1.54.53.24-2.39-.07-5.01-2.23-6.22l.49-.87C10 7.7 9.11 13.11 8.29 16h1.17l.17-.46a2.755 2.755 0 0 1 2.58-1.81h.25c.33 0 .62.15.81.42s.23.6.12.91l-.33.94h1.48-.02c1.95-8.22 8.58-8.78 8.65-8.79l.07 1c-.2.02-4.28.39-6.62 4.94.86-.64 1.88-1.03 2.83-1.03.78 0 1.4.27 1.75.77.39.55.45 1.32.16 2.18l-.31.93h1.47l6.36-17.47zM14.59 4.62c-.61 0-1.11-.5-1.11-1.11s.5-1.11 1.11-1.11 1.11.5 1.11 1.11-.5 1.11-1.11 1.11m3.58.05c-.61 0-1.1-.5-1.1-1.11s.49-1.11 1.1-1.11 1.11.5 1.11 1.11-.49 1.11-1.11 1.11"/></svg>