<svg xmlns="http://www.w3.org/2000/svg" class="icon icon-biscuit-2" viewBox="0 0 16.41 16"><path  d="M16.41 7.51c-.03-.4-.25-.74-.56-.94.22-.3.3-.7.17-1.08-.12-.38-.42-.66-.78-.77.14-.35.11-.75-.1-1.09-.22-.35-.59-.54-.97-.56.05-.37-.06-.76-.35-1.03s-.68-.35-1.05-.29c-.04-.38-.26-.73-.62-.92a1.22 1.22 0 0 0-1.1-.03A1.204 1.204 0 0 0 9.16.31c-.22-.3-.57-.5-.97-.5s-.75.2-.97.5A1.2 1.2 0 0 0 5.33.8a1.22 1.22 0 0 0-1.1.03c-.36.2-.57.55-.62.92-.37-.07-.76.01-1.05.29s-.4.66-.35 1.03c-.38.02-.75.21-.96.56-.21.34-.24.74-.1 1.09-.35.12-.65.39-.77.77s-.04.78.18 1.08c-.31.2-.53.54-.56.95-.02.4.15.76.44 1-.25.27-.38.66-.31 1.05.08.4.34.71.68.87-.18.33-.21.73-.04 1.1s.51.61.88.67c-.09.36-.04.75.22 1.06.26.32.65.44 1.03.41 0 .38.14.76.48 1 .32.24.72.27 1.08.15.09.37.35.69.73.84.37.15.78.09 1.09-.11a1.21 1.21 0 0 0 1.94.25 1.21 1.21 0 0 0 1.94-.25c.32.2.72.25 1.09.11.38-.15.64-.47.73-.84.35.11.75.08 1.08-.15.33-.24.48-.62.48-1 .38.03.77-.1 1.03-.41s.31-.7.22-1.06c.37-.07.71-.3.88-.67.17-.36.14-.77-.04-1.1.34-.16.6-.47.68-.87.07-.39-.05-.78-.31-1.05.29-.24.46-.6.44-1Z"/></svg>