<svg xmlns="http://www.w3.org/2000/svg" fill="currentColor" viewBox="0 0 57.89 16"><path  d="M25.73 15.85c-2.4 0-4.35-1.86-4.35-4.15V7.56c0-1.51-1.32-2.74-2.94-2.74S15.5 6.05 15.5 7.56v4.14c0 2.29-1.94 4.15-4.34 4.15s-4.35-1.86-4.35-4.15V7.56c0-1.51-1.32-2.74-2.94-2.74S.94 6.05.94 7.57H-.47c0-2.29 1.95-4.15 4.35-4.15s4.35 1.86 4.35 4.15v4.14c0 1.51 1.32 2.74 2.94 2.74s2.94-1.23 2.94-2.74V7.57c0-2.29 1.94-4.15 4.34-4.15s4.35 1.86 4.35 4.15v4.14c0 1.51 1.32 2.74 2.94 2.74s2.94-1.23 2.94-2.74V7.57h1.41v4.14c0 2.29-1.95 4.15-4.35 4.15Zm19.98.06V16h11.72c0-2.19-1.78-3.97-3.97-3.97a2.57 2.57 0 0 1-2.57-2.57V7.57h.03V1.62h-1.41v5.74h-2.4V1.67H45.7v14.24Zm-5.85-9.12 1.23-1.47.02.02 2.52-3.29-1.12-.85-2.38 3.1-1.84-1.53 2.38-3.11-1.12-.85-2.52 3.29-2.8 3.37-2.48 2.98-.06.07 9.01 7.5a3.975 3.975 0 0 0-.51-5.59 2.57 2.57 0 0 1-.33-3.62Z"/></svg>