<svg xmlns="http://www.w3.org/2000/svg" fill="currentColor" viewBox="0 0 27.55 16"><path  d="M9.32 6.4H3.23C1.45 6.4 0 7.84 0 9.62s1.45 3.23 3.23 3.23h6.09c1.78 0 3.23-1.45 3.23-3.23S11.1 6.39 9.32 6.39Zm-4.98 5.05H3.23a1.83 1.83 0 0 1 0-3.66h1.11c-.45.48-.73 1.12-.73 1.83s.28 1.35.73 1.83m4.98 0H8.21c.45-.48.73-1.12.73-1.83s-.28-1.35-.73-1.83h1.11a1.83 1.83 0 0 1 0 3.66M24.33 6.4h-6.09c-1.78 0-3.23 1.45-3.23 3.23s1.45 3.23 3.23 3.23h6.09c1.78 0 3.23-1.45 3.23-3.23S26.11 6.4 24.33 6.4m-4.99 5.05h-1.11a1.83 1.83 0 0 1 0-3.66h1.11c-.45.48-.73 1.12-.73 1.83s.28 1.35.73 1.83m4.99 0h-1.11c.45-.48.73-1.12.73-1.83s-.28-1.35-.73-1.83h1.11a1.83 1.83 0 0 1 0 3.66M.32 3.15h11.16v1.4H.32zm14.79 0h11.16v1.4H15.11z"/></svg>