<svg xmlns="http://www.w3.org/2000/svg" class="icon icon-carotte" viewBox="0 0 8.13 16"><path  d="M4.5 14.56q.045-.09.06-.18.045-.09.06-.18.045-.09.06-.18.045-.09.06-.18.045-.09.06-.18l.06-.15c.04-.07.06-.14.09-.22q.045-.09.06-.18.045-.09.06-.18.045-.09.06-.18c.03-.06.04-.12.06-.18.03-.06.04-.12.06-.18.03-.06.04-.12.06-.18.03-.06.04-.12.06-.18.03-.06.04-.12.06-.18.03-.06.04-.12.06-.18.03-.06.04-.12.06-.18.03-.06.04-.12.06-.18.03-.06.04-.12.06-.18.03-.06.04-.12.06-.18.03-.06.04-.12.06-.18.03-.06.04-.12.06-.18.03-.06.04-.12.06-.18.03-.06.04-.12.06-.18.03-.06.04-.12.06-.18.03-.06.04-.12.06-.18.03-.06.04-.12.06-.18.03-.06.04-.12.06-.18.03-.06.04-.12.06-.18.03-.06.04-.12.06-.18.03-.06.04-.12.06-.18.03-.06.04-.12.06-.18.03-.06.04-.12.06-.18.03-.06.04-.12.06-.18.03-.06.04-.12.06-.18.03-.06.04-.12.06-.18.03-.06.04-.12.06-.18.03-.06.04-.12.06-.18.2-.45.31-.94.31-1.46 0-1.16-.55-2.18-1.4-2.85l2.24-.82-.48-1.31-2.64.97.65-1.11L4.28.42 3.27 2.13 2.2.75l-1.11.86.99 1.28A3.633 3.633 0 0 0 .12 7.72l.06.18.06.18.06.18.06.18.06.18.06.18.06.18.06.18.06.18.06.18.06.18.06.18.06.18.06.18.06.18.06.18.06.18.06.18.06.18.06.18.06.18.06.18.06.18.06.18.06.18.06.18.06.18.06.18.06.18.06.18.06.18c.02.08.05.15.09.22l.06.15.06.18.06.18.06.18.06.18.06.18.06.18c.02.06.03.12.06.18.08.33.37.59.73.59s.65-.25.73-.59q.045-.09.06-.18.045-.09.06-.18Z"/></svg>