<svg xmlns="http://www.w3.org/2000/svg" fill="currentColor" viewBox="0 0 25.63 16"><path  d="M4.95 4.48c.81.81 1.86 1.21 2.93 1.21s2.17-.42 3.02-1.26c1.08-1.08 2.84-1.07 3.92 0a4.17 4.17 0 0 0 5.9 0c1.05-1.05 2.87-1.05 3.92 0l.99-.99a4.17 4.17 0 0 0-5.9 0 2.776 2.776 0 0 1-3.92 0c-1.62-1.62-4.27-1.62-5.95.05-1.08 1.08-2.84 1.07-3.96-.05a4.18 4.18 0 0 0-5.9.01l.99.99c1.05-1.05 2.83-1.09 3.96.04M19.73 8.6a2.776 2.776 0 0 1-3.92 0c-1.62-1.62-4.27-1.62-5.95.05C8.78 9.73 7.02 9.72 5.9 8.6a4.17 4.17 0 0 0-5.9 0l.99.99c1.05-1.05 2.83-1.09 3.96.04.81.81 1.86 1.21 2.93 1.21s2.17-.42 3.02-1.26c1.08-1.08 2.84-1.07 3.92 0a4.17 4.17 0 0 0 5.9 0c1.05-1.05 2.87-1.05 3.92 0l.99-.99a4.17 4.17 0 0 0-5.9 0Zm0 5.15a2.776 2.776 0 0 1-3.92 0c-1.62-1.62-4.27-1.63-5.95.05-1.08 1.08-2.84 1.07-3.96-.05a4.17 4.17 0 0 0-5.9 0l.99.99c1.05-1.05 2.83-1.09 3.96.04.81.81 1.86 1.21 2.93 1.21s2.17-.42 3.02-1.26a2.776 2.776 0 0 1 3.92 0 4.17 4.17 0 0 0 5.9 0c1.05-1.05 2.87-1.05 3.92 0l.99-.99a4.17 4.17 0 0 0-5.9 0Z"/></svg>