<svg xmlns="http://www.w3.org/2000/svg" fill="currentColor" class="icon icon-regard-2" viewBox="0 0 27.55 16"><path  d="M9.32 6.63H3.23C1.45 6.63 0 8.07 0 9.85s1.45 3.23 3.23 3.23h6.09c1.78 0 3.23-1.45 3.23-3.23S11.1 6.62 9.32 6.62ZM1.4 9.85c0-1.01.82-1.83 1.83-1.83h1.11c-.45.48-.73 1.12-.73 1.83s.28 1.35.73 1.83H3.23A1.83 1.83 0 0 1 1.4 9.85m7.92 1.83H8.21c.45-.48.73-1.12.73-1.83s-.28-1.35-.73-1.83h1.11a1.83 1.83 0 0 1 0 3.66m2.07-5.66L.23 4.58l.18-1.39 11.16 1.44zm12.94.61h-6.09c-1.78 0-3.23 1.45-3.23 3.23s1.45 3.23 3.23 3.23h6.09c1.78 0 3.23-1.45 3.23-3.23s-1.45-3.23-3.23-3.23m-7.92 3.22c0-1.01.82-1.83 1.83-1.83h1.11c-.45.48-.73 1.12-.73 1.83s.28 1.35.73 1.83h-1.11a1.83 1.83 0 0 1-1.83-1.83m7.92 1.83h-1.11c.45-.48.73-1.12.73-1.83s-.28-1.35-.73-1.83h1.11a1.83 1.83 0 0 1 0 3.66m-7.14-6.87-1.16-.78c1.12-1.66 2.98-2.65 4.98-2.65s3.82.97 4.94 2.6l-1.15.79c-.86-1.25-2.28-1.99-3.79-1.99s-2.96.76-3.82 2.03"/></svg>