<svg xmlns="http://www.w3.org/2000/svg" class="icon icon-etoile-3" viewBox="0 0 17.9 16"><path  d="M14.03 6.64c-.15-.1-.11-.33.06-.39l3.24-1.1c.23-.08.19-.41-.05-.43l-4.61-.43a.225.225 0 0 1-.15-.37l2.26-2.58c.16-.18-.04-.45-.26-.35l-4.21 1.93c-.16.08-.35-.07-.31-.24l.67-3.36c.05-.23-.26-.37-.4-.17L7.59 2.92c-.1.15-.33.11-.39-.06L6.1-.38c-.08-.23-.41-.19-.43.05l-.43 4.61c-.02.18-.23.27-.37.15L2.29 2.17c-.18-.16-.45.04-.35.26l1.93 4.21c.08.16-.07.35-.24.31L.27 6.28c-.23-.05-.37.26-.17.4l3.77 2.68c.15.1.11.33-.06.39l-3.24 1.1c-.23.08-.19.41.05.43l4.61.43c.18.02.27.23.15.37l-2.26 2.58c-.16.18.04.45.26.35l4.21-1.93c.16-.08.35.07.31.24l-.67 3.36c-.05.23.26.37.4.17l2.68-3.77c.1-.15.33-.11.39.06l1.1 3.24c.08.23.41.19.43-.05l.43-4.61c.02-.18.23-.27.37-.15l2.58 2.26c.18.16.45-.04.35-.26l-1.93-4.21c-.08-.16.07-.35.24-.31l3.36.67c.23.05.37-.26.17-.4z"/></svg>