<svg xmlns="http://www.w3.org/2000/svg" class="icon icon-arbre-2" viewBox="0 0 10.74 16"><path  d="M8.51 1.03c-.2 0-.39.03-.57.08 0-.03.02-.05.02-.08 0-.67-.54-1.21-1.21-1.21-.08 0-.15.03-.23.05-.07-.6-.57-1.07-1.18-1.07S4.2-.71 4.15-.08a1.208 1.208 0 0 0-1.67 1.12v.02c-.08 0-.15-.02-.23-.02C1 1.03 0 2.03 0 3.26s1 2.23 2.23 2.23c.1 0 .2-.02.3-.03-.04.12-.07.23-.07.36 0 .67.54 1.21 1.21 1.21.4 0 .74-.21.96-.5V16h1.4V6.78c.2.15.44.26.71.26.67 0 1.21-.54 1.21-1.21 0-.15-.04-.3-.09-.43.2.06.42.1.64.1 1.23 0 2.23-1 2.23-2.23s-1-2.23-2.23-2.23Z"/></svg>