<svg xmlns="http://www.w3.org/2000/svg" fill="currentColor" class="icon icon-explosion-1" viewBox="0 0 16.7 16"><path  d="M13 14.37c-.32.23-.51.57-.61.93a1.63 1.63 0 0 0-1.13.02c-.37.15-.66.42-.83.75a1.63 1.63 0 0 0-2.08.26 1.63 1.63 0 0 0-2.08-.26c-.18-.33-.46-.6-.83-.75a1.63 1.63 0 0 0-1.13-.02c-.09-.36-.28-.7-.61-.93-.33-.24-.72-.32-1.09-.29 0-.38-.1-.76-.36-1.07-.25-.31-.6-.48-.97-.55a1.6 1.6 0 0 0-.89-1.91c.18-.33.26-.71.18-1.1S.28 8.73 0 8.49c.25-.27.42-.62.45-1.02.02-.4-.1-.77-.32-1.07.32-.2.57-.5.69-.88s.09-.77-.04-1.11c.35-.11.67-.34.89-.68s.29-.74.23-1.11c.37-.02.74-.15 1.03-.42s.44-.63.48-1c.37.07.76.03 1.12-.17.35-.19.6-.5.73-.85a1.63 1.63 0 0 0 2.03-.52c.29.24.65.38 1.05.38s.76-.15 1.05-.38c.22.3.53.53.92.63s.78.05 1.11-.11c.14.35.38.65.73.85s.75.24 1.12.16c.05.37.19.73.49 1 .29.27.66.4 1.03.42-.05.37.02.77.23 1.11s.53.56.89.68c-.14.34-.17.73-.04 1.11.12.38.38.68.69.88-.22.3-.35.67-.32 1.07s.2.75.45 1.02c-.29.24-.5.56-.57.96-.08.39 0 .78.18 1.1a1.62 1.62 0 0 0-.89 1.92c-.36.07-.71.24-.97.55s-.36.69-.36 1.07a1.6 1.6 0 0 0-1.09.29Z"/></svg>