<svg xmlns="http://www.w3.org/2000/svg" fill="currentColor" viewBox="0 0 22.92 16"><path  d="M15.41 3.3c-.33-.95-.25-1.9.26-2.84l.87-1.61L15.27.17s-2.78 2.88-4.48 2.26c-.8-.3-1.26-1.37-1.37-3.19h-.5C8.84.62 8.29 4.28 6.78 4.66c-.76.19-2.12-.38-4.38-4.09l-.44.24S4.44 5.87.63 15.53l-.64 1.62 1.07-1.37C3 13.29 6.1 9.97 7.01 10.43c.25.13.69.88-.59 5.05l-.36 1.17.79-.94s2.36-2.76 4.79-2.5c1.26.14 2.35 1.06 3.24 2.75l.46-.2s-1.27-3.92.46-5.96c.96-1.13 2.68-1.51 5.12-1.12l2 .32-1.86-.79s-4.63-2-5.65-4.91"/></svg>