<svg xmlns="http://www.w3.org/2000/svg" fill="currentColor" class="icon icon-raisin" viewBox="0 0 11.94 16"><path  d="M11.94 5A2.014 2.014 0 0 0 8.6 3.48c-.35-.31-.81-.5-1.32-.5-.18 0-.35.03-.52.08V.46h-1.4v2.66c-.23-.08-.46-.14-.72-.14a2 2 0 0 0-1.32.5A2.014 2.014 0 0 0-.02 5c0 1.12.87 1.98 1.95 2.01-.11.25-.18.53-.18.82 0 1.12.9 2.02 2.02 2.02h.02a2.017 2.017 0 0 0 1.3 3.09c-.06.19-.1.38-.1.58 0 1.12.9 2.02 2.02 2.02s2.02-.9 2.02-2.02c0-.25-.05-.48-.13-.7.72-.31 1.23-1.02 1.23-1.86 0-.46-.16-.89-.42-1.23.78-.28 1.35-1.02 1.35-1.9 0-.37-.11-.72-.29-1.02.68-.33 1.14-1.01 1.14-1.81Z"/></svg>