<svg xmlns="http://www.w3.org/2000/svg" fill="currentColor" viewBox="0 0 28.88 16"><path  d="M3.84 6.46c.32 0 .62-.08.89-.22 0 .03-.01.07-.01.1 0 1.1.9 2 2 2 .89 0 1.64-.58 1.89-1.39.29.17.62.27.98.27 1.1 0 2-.9 2-2s-.9-2-2-2c-.19 0-.37.03-.54.08a1.99 1.99 0 0 0-3.84-.29c-.36-.34-.84-.55-1.38-.55-1.1 0-2 .9-2 2s.9 2 2 2Zm12.6 0c.32 0 .62-.08.89-.22 0 .03-.01.07-.01.1 0 1.1.9 2 2 2 .89 0 1.64-.58 1.89-1.39.29.17.62.27.98.27 1.1 0 2-.9 2-2s-.9-2-2-2c-.19 0-.37.03-.54.08a1.99 1.99 0 0 0-3.84-.29c-.36-.34-.84-.55-1.38-.55-1.1 0-2 .9-2 2s.9 2 2 2Zm12.44 6.82-2.43-2.43c-1.32-1.32-3.46-1.32-4.78 0s-3.46 1.32-4.78 0a3.37 3.37 0 0 0-4.78 0l-.06.06a3.39 3.39 0 0 1-4.78 0l-.04-.04a3.38 3.38 0 0 0-4.78 0L0 13.28V16h28.88z"/></svg>