<svg xmlns="http://www.w3.org/2000/svg" fill="currentColor" class="icon icon-fraise" viewBox="0 0 10.9 16"><path  d="M10.55 6.46a1.129 1.129 0 0 1-1.85-.87c0-.45.26-.85.64-1.02-.52-.53-1.14-.95-1.83-1.24l1.23-1.82L7.58.73 6.09 2.94V.75h-1.4v2.19L3.19.73l-1.16.78 1.26 1.87c-.64.27-1.21.66-1.68 1.15.43.16.73.57.73 1.06 0 .62-.5 1.13-1.13 1.13-.32 0-.62-.14-.83-.35C.14 6.99 0 7.67 0 8.38c0 1.51.61 2.88 1.61 3.87 0 .01.02.02.03.03l.03.03.03.03c.01 0 .02.02.03.03 0 .01 0 .02.02.03.01 0 .02.02.03.03l.03.03c.01 0 .02.02.03.03l.03.03c.01 0 .02.02.03.03l.03.03.03.03c0 .01.01.02.02.03 0 .01.02.02.03.02l.03.03.03.03.03.03.03.03.03.03s.02.02.02.03c.01 0 .02.02.03.03l.03.03c.01 0 .02.02.03.03l.15.15s0 .02.02.03l.09.09.03.03.03.03.03.03c.01.01.02.02.02.03l.03.03c0 .01.02.02.03.03l.03.03c0 .01.02.02.03.03l.03.03.03.03c.01 0 .02.02.03.02s.02.02.02.03l.03.03.03.03.03.03.03.03.03.03.03.03c0 .01.02.02.03.03s.02.02.02.03l.03.03.03.03.03.03.03.03.03.03.03.03.03.03.03.03c0 .01.01.02.02.03 0 .01.02.02.03.03.01 0 .02.02.03.03 0 .01.02.02.03.03.01 0 .02.02.03.03 0 .01.02.02.03.03.01 0 .02.02.03.03l.03.03s.01.02.02.03l.03.03c.01.01.02.02.03.02l.03.03.03.03.03.03.03.03.03.03s0 .02.02.03l.03.03.03.03c.01 0 .02.02.03.03a2.153 2.153 0 0 0 3.08 0l.03-.03.03-.03.03-.03c.01 0 .02-.02.03-.03 0-.01.02-.02.03-.03.01 0 .02-.02.03-.03 0-.01.02-.02.03-.03.01 0 .01-.02.02-.03l.03-.03c.01 0 .02 0 .03-.02s.02-.02.03-.03l.03-.03.03-.03.03-.03.03-.03c.01-.01.01-.02.02-.03l.03-.03.03-.03.03-.03.03-.03c.01 0 .02-.02.03-.03l.03-.03c.01 0 .02-.02.03-.03s.01-.02.02-.03c.01 0 .02-.02.03-.03l.03-.03c.01 0 .02-.02.03-.03l.03-.03.03-.03.03-.03.03-.03c.01-.01.01-.02.02-.03l.15-.15s.02-.02.03-.02l.03-.03c.01 0 .01-.02.02-.03l.21-.21s.01-.02.02-.03l.03-.03.03-.03.03-.03.03-.03.03-.03.03-.03c0-.01.02-.02.03-.03s.01-.02.02-.03l.03-.03.03-.03.03-.03.03-.03.03-.03.03-.03.03-.03c.01-.01.01-.02.02-.03.01 0 .02-.02.03-.03 0-.01.02-.02.03-.03.01 0 .02 0 .03-.02 0-.01.02-.02.03-.03l.03-.03c0-.01.02-.02.03-.03l.03-.03c.01-.01.01-.02.02-.03l.03-.03.03-.03.03-.03.03-.03.03-.03.03-.03c.01-.01.01-.02.02-.03.01 0 .03-.02.04-.03.99-.99 1.6-2.36 1.6-3.87 0-.67-.12-1.32-.35-1.92m-7.1 3.79c-.62 0-1.13-.51-1.13-1.13s.51-1.14 1.13-1.14 1.14.51 1.14 1.14-.51 1.13-1.14 1.13m2.07 3.81c-.63 0-1.13-.51-1.13-1.14s.5-1.13 1.13-1.13 1.13.51 1.13 1.13-.5 1.14-1.13 1.14m0-7.34c-.63 0-1.13-.51-1.13-1.13s.5-1.14 1.13-1.14 1.13.51 1.13 1.14-.5 1.13-1.13 1.13m2.44 3.53c-.62 0-1.13-.51-1.13-1.13s.51-1.14 1.13-1.14 1.14.51 1.14 1.14-.51 1.13-1.14 1.13"/></svg>