<svg xmlns="http://www.w3.org/2000/svg" class="icon icon-ovni" viewBox="0 0 25.51 16"><path  d="M25.51 11.84c0-1.16-1.82-2.19-4.65-2.87.13.63.22 1.38.16 2.17l-1-.07c.07-1.03-.14-1.99-.33-2.63-1.02-2.55-3.39-4.42-6.23-4.69V3.3c.48-.25.81-.75.81-1.33 0-.83-.68-1.51-1.51-1.51s-1.51.68-1.51 1.51c0 .58.33 1.08.81 1.33v.45a7.48 7.48 0 0 0-6.25 4.72c-.19.64-.4 1.59-.32 2.6l-1 .07c-.06-.79.03-1.54.16-2.17C1.82 9.65 0 10.68 0 11.84c0 1.01 1.39 1.93 3.63 2.6l-.58.58.99.99 1.17-1.17c2.11.45 4.72.73 7.55.73s5.44-.27 7.56-.73l1.17 1.17.99-.99-.58-.58c2.23-.67 3.61-1.58 3.61-2.59Zm-17.53.09c-.61 0-1.11-.5-1.11-1.11s.5-1.11 1.11-1.11 1.11.5 1.11 1.11-.5 1.11-1.11 1.11m4.78.39c-.61 0-1.11-.5-1.11-1.11s.5-1.11 1.11-1.11 1.11.5 1.11 1.11-.5 1.11-1.11 1.11m4.51-.26c-.61 0-1.11-.5-1.11-1.11s.5-1.11 1.11-1.11 1.11.5 1.11 1.11-.5 1.11-1.11 1.11"/></svg>