<svg xmlns="http://www.w3.org/2000/svg" fill="currentColor" class="icon icon-rouage-1" viewBox="0 0 18.01 16"><path  d="m18.01 7.17-.14-.74c-1.92.29-2.53.17-2.7.1.1-.16.54-.64 2.35-1.57l-.32-.68c-1.78.76-2.41.79-2.59.77.06-.18.36-.75 1.88-2.1l-.48-.58c-1.54 1.18-2.13 1.36-2.32 1.39.01-.19.16-.82 1.3-2.51l-.61-.44c-1.2 1.52-1.73 1.85-1.9 1.92-.03-.19-.04-.84.64-2.75l-.7-.28c-.78 1.77-1.21 2.22-1.37 2.33-.08-.17-.25-.8-.06-2.82l-.74-.1c-.34 2.09-.68 2.54-.74 2.62h-.02c-.09-.09-.44-.56-.81-2.74l-.74.1c.18 1.93.02 2.53-.06 2.7-.15-.11-.61-.58-1.43-2.44l-.7.28c.66 1.82.65 2.45.62 2.63-.18-.07-.73-.41-1.99-2l-.6.44c1.09 1.6 1.24 2.21 1.25 2.4-.19-.02-.81-.21-2.43-1.44l-.48.58c1.45 1.28 1.75 1.83 1.81 2.01-.19.02-.84 0-2.71-.8l-.32.68c1.73.88 2.15 1.34 2.25 1.5-.18.07-.81.21-2.82-.1l-.14.74c1.89.43 2.41.77 2.55.89-.15.11-.73.4-2.76.61l.05.75c1.94-.06 2.53.14 2.69.23-.12.15-.61.57-2.52 1.27l.23.71c1.86-.54 2.48-.49 2.67-.45-.08.17-.45.7-2.13 1.86l.4.63c1.67-.98 2.28-1.09 2.47-1.1-.04.19-.26.79-1.6 2.33l.55.51c1.37-1.37 1.94-1.63 2.12-1.67.01.19-.06.83-.97 2.65l.66.36c.99-1.66 1.48-2.06 1.64-2.15.06.18.15.82-.28 2.81l.73.19c.55-1.86.92-2.36 1.05-2.49.1.16.35.76.43 2.79h.75c.07-1.94.3-2.52.4-2.67.14.13.53.65 1.11 2.6l.73-.19c-.42-1.89-.33-2.51-.27-2.69.17.09.67.5 1.72 2.24l.66-.36c-.87-1.73-.94-2.35-.93-2.54.18.05.77.31 2.22 1.75l.55-.51c-1.27-1.46-1.5-2.04-1.53-2.23.19 0 .83.11 2.59 1.14l.4-.63c-1.6-1.1-1.96-1.61-2.04-1.77.18-.04.83-.1 2.79.46l.23-.71c-1.82-.67-2.3-1.07-2.42-1.21.17-.09.78-.3 2.81-.25l.05-.75c-1.93-.19-2.49-.47-2.64-.57.14-.13.68-.49 2.66-.94"/></svg>