<svg xmlns="http://www.w3.org/2000/svg" class="icon icon-arbre-3" viewBox="0 0 4.47 16"><path  d="M4.09 4.49c.23-.35.37-.78.37-1.23 0-.89-.53-1.66-1.29-2.02.07-.14.11-.29.11-.45 0-.58-.47-1.06-1.06-1.06a1.044 1.044 0 0 0-.93 1.51 2.23 2.23 0 0 0-.92 3.25C.14 4.84 0 5.27 0 5.72s.14.88.37 1.23C.14 7.3 0 7.73 0 8.18s.14.88.37 1.23a2.223 2.223 0 0 0 1.16 3.34v3.24h1.4v-3.24c.89-.29 1.53-1.12 1.53-2.11 0-.46-.14-.88-.37-1.23.23-.35.37-.78.37-1.23s-.14-.88-.37-1.23c.23-.35.37-.78.37-1.23s-.14-.88-.37-1.23"/></svg>