<svg xmlns="http://www.w3.org/2000/svg" id="Calque_1" class="icon icon-tunnel" viewBox="0 0 100.31 16"><defs><style>.cls-1{fill:#1d1d1b}</style></defs><path d="M72.68 5.88c.4 0 .77-.12 1.09-.32a2 2 0 0 0 1.98 1.83c.98 0 1.79-.71 1.96-1.64a1.987 1.987 0 0 0 2.66-1.37 1.993 1.993 0 0 0 3.02 1.19 2 2 0 0 0 1.98 1.83c.98 0 1.79-.71 1.96-1.64.23.09.47.14.73.14 1.1 0 2-.9 2-2a2.006 2.006 0 0 0-2.81-1.83A1.99 1.99 0 0 0 85.37.73c-.94 0-1.72.65-1.94 1.52a1.99 1.99 0 0 0-3.06 1.16 1.993 1.993 0 0 0-2.74-1.34A1.99 1.99 0 0 0 75.75.73c-.94 0-1.72.65-1.94 1.52a2 2 0 0 0-1.13-.35c-1.1 0-2 .9-2 2s.9 2 2 2Z" class="cls-1"/><path d="M100.31 10.88v-1.4H45.64L37.76.61 30.65 5.6l-9.8-5.76L10 10.6 5.77 8.87 0 15.98h31.56V16h68.75v-1.4h-2.28v-3.72zm-61.58 3.23h-4.39v-3.87c0-1.22.98-2.2 2.19-2.2s2.2.98 2.2 2.2zm8.41-2.94-.26-.3h.26zm3.54 3.43h-.49l-1.64-1.85v-1.87h2.13zm3.53 0h-2.13v-3.72h2.13zm3.54 0h-2.13v-3.72h2.13zm3.53 0h-2.13v-3.72h2.13zm3.54 0h-2.13v-3.72h2.13zm3.53 0h-2.13v-3.72h2.13zm3.54 0h-2.13v-3.72h2.13zm3.53 0h-2.13v-3.72h2.13zm3.54 0h-2.13v-3.72h2.13zm3.53 0h-2.13v-3.72h2.13zm3.54 0H83.9v-3.72h2.13zm3.53 0h-2.13v-3.72h2.13zm3.54 0h-2.13v-3.72h2.13zm1.4-3.72h2.13v3.72H94.5z" class="cls-1"/></svg>