<svg xmlns="http://www.w3.org/2000/svg" fill="currentColor" class="icon icon-fleur-1" viewBox="0 0 9.39 16"><path  d="M7.48 5.81c1.06-.07 1.92-.24 1.91-.38 0-.14-.88-.2-1.94-.13-.45.03-.85.08-1.18.13.32-.07.72-.18 1.16-.32 1.01-.33 1.8-.71 1.75-.84-.04-.13-.9.02-1.91.35q-.645.21-1.11.42c.3-.15.66-.35 1.04-.6.9-.57 1.56-1.13 1.49-1.25s-.87.25-1.76.82c-.38.24-.71.48-.97.68.25-.22.55-.5.86-.84.73-.78 1.23-1.48 1.13-1.58s-.78.45-1.51 1.23c-.31.33-.57.64-.77.9.19-.27.41-.62.63-1.02.51-.93.83-1.74.7-1.81-.12-.07-.64.63-1.15 1.57-.22.39-.39.76-.52 1.06.12-.31.24-.71.35-1.15.26-1.03.37-1.9.23-1.93s-.46.77-.73 1.8c-.11.43-.19.83-.24 1.16.04-.33.06-.74.06-1.2C5 1.82 4.89.95 4.74.95c0 0-.01 0-.02.01 0 0-.01-.01-.02-.01-.14 0-.25.86-.24 1.93 0 .45.03.85.06 1.18-.05-.33-.13-.73-.25-1.17-.27-1.03-.6-1.83-.74-1.8-.14.04-.03.9.24 1.93.11.43.24.82.35 1.13-.13-.31-.31-.68-.53-1.07-.52-.93-1.04-1.63-1.16-1.56s.2.88.72 1.81c.22.39.44.74.62 1.01-.2-.26-.47-.58-.79-.91-.73-.77-1.41-1.32-1.51-1.22s.41.8 1.14 1.57c.31.32.6.6.85.82-.26-.21-.6-.44-.99-.68-.9-.57-1.69-.93-1.77-.81s.6.68 1.5 1.24c.38.24.74.44 1.03.58-.3-.13-.69-.28-1.13-.42C1.09 4.19.23 4.03.19 4.17c-.04.13.74.51 1.76.83.43.14.82.24 1.14.31-.33-.05-.74-.1-1.19-.13-1.02-.06-1.9 0-1.9.14s.85.31 1.91.37c.45.03.85.03 1.18.01-.33.03-.74.09-1.19.17-1.04.2-1.87.48-1.84.62s.9.09 1.94-.12c.44-.09.83-.19 1.15-.28-.31.11-.7.27-1.11.46-.96.46-1.69.93-1.63 1.06s.89-.14 1.85-.6c.4-.19.76-.39 1.04-.56-.28.18-.61.43-.96.72-.82.68-1.41 1.32-1.32 1.43s.83-.36 1.64-1.04c.34-.29.64-.56.87-.8-.22.25-.48.57-.75.94-.62.86-1.03 1.63-.92 1.71S2.57 8.86 3.19 8c.26-.36.48-.7.64-.99-.15.29-.32.67-.49 1.09-.39.99-.6 1.84-.46 1.89.13.05.55-.71.94-1.7.03-.08.06-.17.09-.25v5.25L1.1 10.48l-.49.5-.5.5 3.51 3.5.29.29.18.18.52.52.52-.52.18-.18.29-.29 3.5-3.5-.49-.5-.5-.5-2.8 2.81V8.14c.02.06.05.12.07.19.39.99.82 1.75.95 1.69.13-.05-.08-.9-.48-1.88-.17-.42-.34-.78-.49-1.08.17.29.39.63.66 1 .63.86 1.23 1.49 1.34 1.41s-.3-.85-.93-1.71c-.26-.36-.52-.68-.74-.92.23.24.54.52.89.81.82.68 1.56 1.14 1.65 1.03s-.5-.75-1.33-1.42c-.35-.28-.67-.53-.95-.71.28.17.65.37 1.06.56.96.45 1.79.71 1.85.58s-.67-.6-1.64-1.05c-.41-.19-.78-.34-1.09-.45.32.1.72.19 1.17.28 1.05.2 1.92.24 1.94.11.03-.14-.8-.41-1.85-.61-.44-.08-.84-.14-1.17-.16.33.01.74 0 1.2-.02Z"/></svg>