<svg xmlns="http://www.w3.org/2000/svg" fill="currentColor" class="icon icon-explosion-4" viewBox="0 0 16.64 16"><path  d="M13.73 11.08c-1.52-3.28.5-8.27.52-8.32l.54-1.31-.98 1.02c-.8.84-1.56 1.17-2.25.99-1.84-.49-2.8-4.34-2.81-4.38l-.52.12c.41 2.05.21 3.35-.59 3.88C6.08 4.1 2.36 2.08.67.97.56.89.44.81.32.73l-.3.44s.14.1.31.21c3.73 2.59 5.39 6.52 4.84 8.9-.3 1.28-1.19 2.05-2.59 2.25-.03 0-.06 0-.09.01l.07.53s.06 0 .09-.01c7.92-1.05 8.56 1.78 9.02 3.85l.53-.1c-.14-.93.04-1.64.53-2.11 1.18-1.12 3.77-.63 3.8-.63l.13-.52c-1.37-.44-2.35-1.28-2.91-2.48Z"/></svg>